<?xml version="1.0" encoding="UTF-8"?>
<svg id="Layer_1" data-name="Layer 1" xmlns="http://www.w3.org/2000/svg" viewBox="0 0 1057.09 830.56">
  <defs>
    <style>
      .cls-1 {
        fill: #385caa;
      }

      .cls-2 {
        fill: #2f3030;
      }
    </style>
  </defs>
  <path class="cls-1" d="M153.63,105.64c42.08-.61,76.44,11.75,104.35,39.62,16.97,16.94,27.67,37.45,30.01,61.78,.43,4.52,.92,9.1,2.01,13.49,2.02,8.11,5.61,13.81,14.56,17.76,58.55,25.84,116.59,52.83,174.92,79.17,28.18,12.72,56.95,24.19,84.88,37.42,30.5,14.45,62.25,25.68,93.49,38.22,49.75,19.97,99.73,39.36,149.67,58.86,9.14,3.57,16.53-2.07,23.81-6.07,13.55-7.44,25.92-16.9,40.31-22.93,33.24-13.93,65.59-11.6,97.59,4.28,29.01,14.4,53.24,33.63,68.24,63.13,12.88,25.32,18.97,52.21,19.6,80.45,.12,5.42-1.29,10.79-6.35,13.28-4.55,2.23-7.74-2.3-11.1-4.57-18.38-12.42-36.73-24.91-54.96-37.54-23.04-15.96-47.25-15.45-68.44,2.87-17.81,15.4-31.63,33.91-35.07,57.98-2.7,18.89,3.25,34.81,19.61,45.98,22.83,15.59,45.51,31.4,68.52,46.71,5,3.33,4.8,5.41,1.44,9.73-4.72,6.05-11.58,7.74-18.05,9.97-50.66,17.48-113.42,9.28-154.18-31.91-18.09-18.27-28.03-40.72-30.01-66.66-.89-11.71-4.13-21.03-17.3-26.75-58.45-25.37-116.34-52.01-174.37-78.33-41.15-18.66-81.92-38.17-123.95-54.83-31.26-12.39-62.63-24.49-93.89-36.87-31.83-12.6-63.78-24.94-95.31-38.27-16.44-6.95-30.74-5.5-44.98,5.01-14.98,11.05-31.25,19.89-49.45,24.56-27.24,6.99-53.65,4.94-78.8-8.12-23.87-12.4-46.1-26.53-61.67-49.68-14.74-21.93-23.99-45.4-26.27-71.67-.71-8.16-1.86-16.29-2.44-24.46-.36-5.1,1.23-10.16,5.74-12.7,4.05-2.27,7.17,1.94,10.18,3.98,18.32,12.43,37.06,24.24,54.92,37.4,23.73,17.49,44.62,17.65,68.32-1.16,21.52-17.08,36.59-38.7,37.04-67.87,.23-14.94-6.12-26.75-17.73-35.17-22.15-16.07-44.92-31.29-67.33-47-2.82-1.98-8.27-3.12-7.27-7.04,1-3.92,3.92-7.6,8.73-9.64,20.45-8.68,41.58-13.19,60.98-12.38Z"/>
  <path class="cls-2" d="M804.47,726.9c-14.46,14.18-27.95,27.77-41.87,40.91-6.37,6.01-18.27,3.84-26.2-4.09-13.96-13.97-28.13-27.75-41.62-42.16-4.35-4.65-7.64-4.49-12.53-1.83-14.68,7.98-30.19,14.26-46.06,19.24-6.88,2.16-8.42,5.28-8.35,11.54,.22,19.78,.1,39.57,.07,59.35-.02,13.71-6.1,20.01-19.98,20.1-22.84,.16-45.68-.03-68.52,.06-28,.12-56,.48-83.99,.53-18.71,.03-27.54-3.78-26.84-26.94,.55-18.25-.04-36.52,.21-54.78,.07-5.36-1.39-8.14-6.99-9.66-17.04-4.61-33.04-12.01-48.82-19.8-4.09-2.02-6.97-2.02-10.4,1.49-13.8,14.16-28.04,27.89-41.82,42.06-10.49,10.79-19.9,11.34-30.46,.85-36.91-36.66-73.78-73.36-110.61-110.11-11-10.98-10.66-20.1,.58-31.22,13.84-13.69,27.4-27.67,41.43-41.17,3.81-3.66,4.28-6.83,1.95-11.13-8.83-16.33-15.63-33.54-21.33-51.14-1.7-5.23-4.94-4.41-8.4-4.42-19.77-.05-39.54,.03-59.31-.04-15.78-.06-21.64-5.89-21.69-21.45-.05-14.61,.2-29.22-.12-43.83-.12-5.53,1.03-7.65,7.1-6.43,39.86,7.98,74.87-5.1,107.61-26.1,10.82-6.94,21.02-8.07,32.66-3.48,15.51,6.12,31.1,12.07,46.84,17.54,6.3,2.19,6.89,6.92,7.33,12,1.75,20.18,7.46,39.39,15.52,57.75,18.61,42.39,48.01,75.31,87.84,99.27,36.75,22.11,76.39,32.11,118.96,30.65,43.65-1.5,83.27-15.3,118.39-41.29,6.12-4.53,10.81-5.48,17.94-1.88,17.54,8.83,35.44,17.05,53.62,24.48,8.13,3.32,12.14,8.23,13.11,16.52,3.17,27.11,14.91,50.35,32.49,70.84,8.95,10.42,19.72,18.82,32.22,27.75Z"/>
  <path class="cls-2" d="M526.69,.03c25.56,0,51.13,.07,76.69-.02,19.07-.07,24.54,5.21,24.55,24.19,0,18.26,.23,36.53-.12,54.79-.13,6.57,2.06,9.73,8.55,11.59,16.65,4.78,32.67,11.43,47.88,19.71,4.9,2.67,7.57,1.53,10.93-1.87,14.11-14.29,28.35-28.45,42.57-42.64,9.54-9.52,19.87-9.75,29.38-.18,32.34,32.52,64.51,65.2,96.81,97.75,5.98,6.02,12.75,11.2,17.72,18.29,5.5,7.84,4.95,15.87-1.9,22.69-15.3,15.24-30.42,30.65-45.75,45.87-2.62,2.6-2.89,4.9-1.29,8.04,8.51,16.75,16.24,33.84,21.35,51.97,1.41,4.99,4.97,5.32,9.22,5.3,19.49-.1,38.98-.12,58.47-.02,16.26,.09,21.93,5.86,21.95,22.04,.02,13.7-.24,27.4,.12,41.09,.16,6.06-1.35,8.11-7.77,6.93-39.15-7.2-73.73,5.11-105.85,26.14-9.81,6.42-18.61,9.79-30.39,4.57-15.48-6.87-31.65-12.24-47.68-17.79-5.9-2.04-8.51-5.21-9.38-11.53-7.83-56.94-33.79-104.03-78.58-140.15-42.05-33.9-90.65-50.38-144.5-48.27-43.35,1.7-83.31,15.7-118.39,41.65-6.28,4.64-11.03,4.52-17.16,1.62-16.18-7.64-32.42-15.16-48.64-22.72-1.37-.64-2.7-1.61-4.14-1.84-11.14-1.77-13.63-8.01-14.74-19.23-2.58-25.99-14.44-48.74-32.36-67.85-7.87-8.39-15.77-16.95-25.56-23.31-4.45-2.89-3.48-5.69-.36-8.78,11.88-11.78,23.52-23.83,35.7-35.29,7.41-6.97,16.89-5.56,25.06,2.59,13.99,13.96,28.16,27.73,41.97,41.85,4.64,4.74,8.48,4.79,14.34,1.76,14.53-7.51,29.59-14.04,45.34-18.59,5.88-1.7,8.32-4.16,8.15-10.69-.49-19.16-.24-38.35-.15-57.53,.08-16.07,5.51-21.51,21.22-21.52,25.58-.01,51.16,0,76.74,0,0-.2,0-.39,0-.59Z"/>
</svg>